<mxfile host="Electron" modified="2024-04-26T20:04:33.142Z" agent="Mozilla/5.0 (Macintosh; Intel Mac OS X 10_15_7) AppleWebKit/537.36 (KHTML, like Gecko) draw.io/24.2.5 Chrome/120.0.6099.109 Electron/28.1.0 Safari/537.36" etag="euDEYt1N2dd_TcwKgfoG" version="24.2.5" type="device">
  <diagram id="C5RBs43oDa-KdzZeNtuy" name="Page-1">
    <mxGraphModel dx="1908" dy="1348" grid="1" gridSize="10" guides="1" tooltips="1" connect="1" arrows="1" fold="1" page="1" pageScale="1" pageWidth="1169" pageHeight="827" math="0" shadow="0">
      <root>
        <mxCell id="WIyWlLk6GJQsqaUBKTNV-0" />
        <mxCell id="WIyWlLk6GJQsqaUBKTNV-1" parent="WIyWlLk6GJQsqaUBKTNV-0" />
        <mxCell id="qsbTWaNZIfIj6reJVmS2-160" value="" style="group" vertex="1" connectable="0" parent="WIyWlLk6GJQsqaUBKTNV-1">
          <mxGeometry x="143" y="24" width="830" height="780" as="geometry" />
        </mxCell>
        <mxCell id="_J-mzapSPnfyJx4NyJFm-59" value="&lt;font style=&quot;font-size: 36px;&quot;&gt;Before&lt;/font&gt;" style="text;strokeColor=none;align=center;fillColor=none;html=1;verticalAlign=middle;whiteSpace=wrap;rounded=0;" parent="qsbTWaNZIfIj6reJVmS2-160" vertex="1">
          <mxGeometry x="76" width="60" height="30" as="geometry" />
        </mxCell>
        <mxCell id="_J-mzapSPnfyJx4NyJFm-0" value="Home__Page" style="swimlane;whiteSpace=wrap;html=1;" parent="qsbTWaNZIfIj6reJVmS2-160" vertex="1">
          <mxGeometry y="54" width="210" height="286" as="geometry" />
        </mxCell>
        <mxCell id="_J-mzapSPnfyJx4NyJFm-19" value="" style="rounded=1;whiteSpace=wrap;html=1;" parent="_J-mzapSPnfyJx4NyJFm-0" vertex="1">
          <mxGeometry x="10" y="30" width="190" height="70" as="geometry" />
        </mxCell>
        <mxCell id="_J-mzapSPnfyJx4NyJFm-20" value="Hero" style="text;strokeColor=none;align=center;fillColor=none;html=1;verticalAlign=middle;whiteSpace=wrap;rounded=0;" parent="_J-mzapSPnfyJx4NyJFm-0" vertex="1">
          <mxGeometry x="70" y="50" width="60" height="30" as="geometry" />
        </mxCell>
        <mxCell id="_J-mzapSPnfyJx4NyJFm-21" value="" style="rounded=1;whiteSpace=wrap;html=1;" parent="_J-mzapSPnfyJx4NyJFm-0" vertex="1">
          <mxGeometry x="10" y="195" width="90" height="70" as="geometry" />
        </mxCell>
        <mxCell id="_J-mzapSPnfyJx4NyJFm-22" value="" style="rounded=1;whiteSpace=wrap;html=1;" parent="_J-mzapSPnfyJx4NyJFm-0" vertex="1">
          <mxGeometry x="110" y="195" width="90" height="70" as="geometry" />
        </mxCell>
        <mxCell id="_J-mzapSPnfyJx4NyJFm-23" value="Venue Listing" style="text;strokeColor=none;align=center;fillColor=none;html=1;verticalAlign=middle;whiteSpace=wrap;rounded=0;" parent="_J-mzapSPnfyJx4NyJFm-0" vertex="1">
          <mxGeometry x="55" y="172" width="100" height="20" as="geometry" />
        </mxCell>
        <mxCell id="_J-mzapSPnfyJx4NyJFm-15" value="" style="rounded=0;whiteSpace=wrap;html=1;" parent="_J-mzapSPnfyJx4NyJFm-0" vertex="1">
          <mxGeometry y="110" width="210" height="60" as="geometry" />
        </mxCell>
        <mxCell id="_J-mzapSPnfyJx4NyJFm-3" value="" style="rounded=1;whiteSpace=wrap;html=1;" parent="_J-mzapSPnfyJx4NyJFm-0" vertex="1">
          <mxGeometry x="10" y="140" width="40" height="20" as="geometry" />
        </mxCell>
        <mxCell id="_J-mzapSPnfyJx4NyJFm-4" value="&lt;font style=&quot;font-size: 10px;&quot;&gt;Date 4&lt;/font&gt;" style="rounded=1;whiteSpace=wrap;html=1;" parent="_J-mzapSPnfyJx4NyJFm-0" vertex="1">
          <mxGeometry x="160" y="140" width="40" height="20" as="geometry" />
        </mxCell>
        <mxCell id="_J-mzapSPnfyJx4NyJFm-6" value="" style="rounded=1;whiteSpace=wrap;html=1;" parent="_J-mzapSPnfyJx4NyJFm-0" vertex="1">
          <mxGeometry x="60" y="140" width="40" height="20" as="geometry" />
        </mxCell>
        <mxCell id="_J-mzapSPnfyJx4NyJFm-7" value="" style="rounded=1;whiteSpace=wrap;html=1;" parent="_J-mzapSPnfyJx4NyJFm-0" vertex="1">
          <mxGeometry x="109" y="140" width="40" height="20" as="geometry" />
        </mxCell>
        <mxCell id="_J-mzapSPnfyJx4NyJFm-8" value="&lt;font style=&quot;font-size: 10px;&quot;&gt;Date1&lt;/font&gt;" style="text;strokeColor=none;align=center;fillColor=none;html=1;verticalAlign=middle;whiteSpace=wrap;rounded=0;" parent="_J-mzapSPnfyJx4NyJFm-0" vertex="1">
          <mxGeometry x="10" y="140" width="40" height="20" as="geometry" />
        </mxCell>
        <mxCell id="_J-mzapSPnfyJx4NyJFm-9" value="&lt;font style=&quot;font-size: 10px;&quot;&gt;Date2&lt;/font&gt;" style="text;strokeColor=none;align=center;fillColor=none;html=1;verticalAlign=middle;whiteSpace=wrap;rounded=0;" parent="_J-mzapSPnfyJx4NyJFm-0" vertex="1">
          <mxGeometry x="60" y="140" width="40" height="20" as="geometry" />
        </mxCell>
        <mxCell id="_J-mzapSPnfyJx4NyJFm-10" value="&lt;font style=&quot;font-size: 10px;&quot;&gt;Date3&lt;/font&gt;" style="text;strokeColor=none;align=center;fillColor=none;html=1;verticalAlign=middle;whiteSpace=wrap;rounded=0;" parent="_J-mzapSPnfyJx4NyJFm-0" vertex="1">
          <mxGeometry x="109" y="140" width="40" height="20" as="geometry" />
        </mxCell>
        <mxCell id="_J-mzapSPnfyJx4NyJFm-16" value="Tabbed Calendar" style="text;strokeColor=none;align=center;fillColor=none;html=1;verticalAlign=middle;whiteSpace=wrap;rounded=0;" parent="_J-mzapSPnfyJx4NyJFm-0" vertex="1">
          <mxGeometry x="45" y="115" width="120" height="20" as="geometry" />
        </mxCell>
        <mxCell id="_J-mzapSPnfyJx4NyJFm-24" value="&lt;font style=&quot;font-size: 10px;&quot;&gt;Venue1&lt;/font&gt;" style="text;strokeColor=none;align=center;fillColor=none;html=1;verticalAlign=middle;whiteSpace=wrap;rounded=0;" parent="_J-mzapSPnfyJx4NyJFm-0" vertex="1">
          <mxGeometry x="35" y="220" width="40" height="20" as="geometry" />
        </mxCell>
        <mxCell id="_J-mzapSPnfyJx4NyJFm-25" value="&lt;font style=&quot;font-size: 10px;&quot;&gt;Venue2&lt;/font&gt;" style="text;strokeColor=none;align=center;fillColor=none;html=1;verticalAlign=middle;whiteSpace=wrap;rounded=0;" parent="_J-mzapSPnfyJx4NyJFm-0" vertex="1">
          <mxGeometry x="135" y="220" width="40" height="20" as="geometry" />
        </mxCell>
        <mxCell id="_J-mzapSPnfyJx4NyJFm-1" value="Venue__Page" style="swimlane;whiteSpace=wrap;html=1;" parent="qsbTWaNZIfIj6reJVmS2-160" vertex="1">
          <mxGeometry x="310" y="53" width="210" height="286" as="geometry" />
        </mxCell>
        <mxCell id="_J-mzapSPnfyJx4NyJFm-31" value="" style="rounded=1;whiteSpace=wrap;html=1;" parent="_J-mzapSPnfyJx4NyJFm-1" vertex="1">
          <mxGeometry x="8" y="200" width="40" height="20" as="geometry" />
        </mxCell>
        <mxCell id="_J-mzapSPnfyJx4NyJFm-32" value="" style="rounded=1;whiteSpace=wrap;html=1;" parent="_J-mzapSPnfyJx4NyJFm-1" vertex="1">
          <mxGeometry x="158" y="200" width="40" height="20" as="geometry" />
        </mxCell>
        <mxCell id="_J-mzapSPnfyJx4NyJFm-33" value="" style="rounded=1;whiteSpace=wrap;html=1;" parent="_J-mzapSPnfyJx4NyJFm-1" vertex="1">
          <mxGeometry x="58" y="200" width="40" height="20" as="geometry" />
        </mxCell>
        <mxCell id="_J-mzapSPnfyJx4NyJFm-34" value="" style="rounded=1;whiteSpace=wrap;html=1;" parent="_J-mzapSPnfyJx4NyJFm-1" vertex="1">
          <mxGeometry x="107" y="200" width="40" height="20" as="geometry" />
        </mxCell>
        <mxCell id="_J-mzapSPnfyJx4NyJFm-35" value="&lt;font style=&quot;font-size: 10px;&quot;&gt;Date1&lt;/font&gt;" style="text;strokeColor=none;align=center;fillColor=none;html=1;verticalAlign=middle;whiteSpace=wrap;rounded=0;" parent="_J-mzapSPnfyJx4NyJFm-1" vertex="1">
          <mxGeometry x="8" y="200" width="40" height="20" as="geometry" />
        </mxCell>
        <mxCell id="_J-mzapSPnfyJx4NyJFm-36" value="&lt;font style=&quot;font-size: 10px;&quot;&gt;Date2&lt;/font&gt;" style="text;strokeColor=none;align=center;fillColor=none;html=1;verticalAlign=middle;whiteSpace=wrap;rounded=0;" parent="_J-mzapSPnfyJx4NyJFm-1" vertex="1">
          <mxGeometry x="58" y="200" width="40" height="20" as="geometry" />
        </mxCell>
        <mxCell id="_J-mzapSPnfyJx4NyJFm-37" value="&lt;font style=&quot;font-size: 10px;&quot;&gt;Date3&lt;/font&gt;" style="text;strokeColor=none;align=center;fillColor=none;html=1;verticalAlign=middle;whiteSpace=wrap;rounded=0;" parent="_J-mzapSPnfyJx4NyJFm-1" vertex="1">
          <mxGeometry x="107" y="200" width="40" height="20" as="geometry" />
        </mxCell>
        <mxCell id="_J-mzapSPnfyJx4NyJFm-38" value="&lt;font style=&quot;font-size: 10px;&quot;&gt;Date4&lt;/font&gt;" style="text;strokeColor=none;align=center;fillColor=none;html=1;verticalAlign=middle;whiteSpace=wrap;rounded=0;" parent="_J-mzapSPnfyJx4NyJFm-1" vertex="1">
          <mxGeometry x="158" y="200" width="40" height="20" as="geometry" />
        </mxCell>
        <mxCell id="_J-mzapSPnfyJx4NyJFm-39" value="" style="rounded=1;whiteSpace=wrap;html=1;" parent="_J-mzapSPnfyJx4NyJFm-1" vertex="1">
          <mxGeometry x="8" y="230" width="40" height="20" as="geometry" />
        </mxCell>
        <mxCell id="_J-mzapSPnfyJx4NyJFm-40" value="" style="rounded=1;whiteSpace=wrap;html=1;" parent="_J-mzapSPnfyJx4NyJFm-1" vertex="1">
          <mxGeometry x="158" y="230" width="40" height="20" as="geometry" />
        </mxCell>
        <mxCell id="_J-mzapSPnfyJx4NyJFm-41" value="" style="rounded=1;whiteSpace=wrap;html=1;" parent="_J-mzapSPnfyJx4NyJFm-1" vertex="1">
          <mxGeometry x="58" y="230" width="40" height="20" as="geometry" />
        </mxCell>
        <mxCell id="_J-mzapSPnfyJx4NyJFm-42" value="" style="rounded=1;whiteSpace=wrap;html=1;" parent="_J-mzapSPnfyJx4NyJFm-1" vertex="1">
          <mxGeometry x="107" y="230" width="40" height="20" as="geometry" />
        </mxCell>
        <mxCell id="_J-mzapSPnfyJx4NyJFm-43" value="&lt;font style=&quot;font-size: 10px;&quot;&gt;Date5&lt;/font&gt;" style="text;strokeColor=none;align=center;fillColor=none;html=1;verticalAlign=middle;whiteSpace=wrap;rounded=0;" parent="_J-mzapSPnfyJx4NyJFm-1" vertex="1">
          <mxGeometry x="8" y="230" width="40" height="20" as="geometry" />
        </mxCell>
        <mxCell id="_J-mzapSPnfyJx4NyJFm-44" value="&lt;font style=&quot;font-size: 10px;&quot;&gt;Date6&lt;/font&gt;" style="text;strokeColor=none;align=center;fillColor=none;html=1;verticalAlign=middle;whiteSpace=wrap;rounded=0;" parent="_J-mzapSPnfyJx4NyJFm-1" vertex="1">
          <mxGeometry x="58" y="230" width="40" height="20" as="geometry" />
        </mxCell>
        <mxCell id="_J-mzapSPnfyJx4NyJFm-45" value="&lt;font style=&quot;font-size: 10px;&quot;&gt;Date7&lt;/font&gt;" style="text;strokeColor=none;align=center;fillColor=none;html=1;verticalAlign=middle;whiteSpace=wrap;rounded=0;" parent="_J-mzapSPnfyJx4NyJFm-1" vertex="1">
          <mxGeometry x="107" y="230" width="40" height="20" as="geometry" />
        </mxCell>
        <mxCell id="_J-mzapSPnfyJx4NyJFm-46" value="&lt;font style=&quot;font-size: 10px;&quot;&gt;Date8&lt;/font&gt;" style="text;strokeColor=none;align=center;fillColor=none;html=1;verticalAlign=middle;whiteSpace=wrap;rounded=0;" parent="_J-mzapSPnfyJx4NyJFm-1" vertex="1">
          <mxGeometry x="158" y="230" width="40" height="20" as="geometry" />
        </mxCell>
        <mxCell id="_J-mzapSPnfyJx4NyJFm-47" value="" style="rounded=1;whiteSpace=wrap;html=1;" parent="_J-mzapSPnfyJx4NyJFm-1" vertex="1">
          <mxGeometry x="8" y="260" width="40" height="20" as="geometry" />
        </mxCell>
        <mxCell id="_J-mzapSPnfyJx4NyJFm-48" value="" style="rounded=1;whiteSpace=wrap;html=1;" parent="_J-mzapSPnfyJx4NyJFm-1" vertex="1">
          <mxGeometry x="158" y="260" width="40" height="20" as="geometry" />
        </mxCell>
        <mxCell id="_J-mzapSPnfyJx4NyJFm-49" value="" style="rounded=1;whiteSpace=wrap;html=1;" parent="_J-mzapSPnfyJx4NyJFm-1" vertex="1">
          <mxGeometry x="58" y="260" width="40" height="20" as="geometry" />
        </mxCell>
        <mxCell id="_J-mzapSPnfyJx4NyJFm-50" value="" style="rounded=1;whiteSpace=wrap;html=1;" parent="_J-mzapSPnfyJx4NyJFm-1" vertex="1">
          <mxGeometry x="107" y="260" width="40" height="20" as="geometry" />
        </mxCell>
        <mxCell id="_J-mzapSPnfyJx4NyJFm-51" value="&lt;font style=&quot;font-size: 10px;&quot;&gt;Date9&lt;/font&gt;" style="text;strokeColor=none;align=center;fillColor=none;html=1;verticalAlign=middle;whiteSpace=wrap;rounded=0;" parent="_J-mzapSPnfyJx4NyJFm-1" vertex="1">
          <mxGeometry x="8" y="260" width="40" height="20" as="geometry" />
        </mxCell>
        <mxCell id="_J-mzapSPnfyJx4NyJFm-52" value="&lt;font style=&quot;font-size: 10px;&quot;&gt;Date10&lt;/font&gt;" style="text;strokeColor=none;align=center;fillColor=none;html=1;verticalAlign=middle;whiteSpace=wrap;rounded=0;" parent="_J-mzapSPnfyJx4NyJFm-1" vertex="1">
          <mxGeometry x="58" y="260" width="40" height="20" as="geometry" />
        </mxCell>
        <mxCell id="_J-mzapSPnfyJx4NyJFm-53" value="&lt;font style=&quot;font-size: 10px;&quot;&gt;Date11&lt;/font&gt;" style="text;strokeColor=none;align=center;fillColor=none;html=1;verticalAlign=middle;whiteSpace=wrap;rounded=0;" parent="_J-mzapSPnfyJx4NyJFm-1" vertex="1">
          <mxGeometry x="107" y="260" width="40" height="20" as="geometry" />
        </mxCell>
        <mxCell id="_J-mzapSPnfyJx4NyJFm-54" value="&lt;font style=&quot;font-size: 10px;&quot;&gt;Date12&lt;/font&gt;" style="text;strokeColor=none;align=center;fillColor=none;html=1;verticalAlign=middle;whiteSpace=wrap;rounded=0;" parent="_J-mzapSPnfyJx4NyJFm-1" vertex="1">
          <mxGeometry x="158" y="260" width="40" height="20" as="geometry" />
        </mxCell>
        <mxCell id="qsbTWaNZIfIj6reJVmS2-9" value="Calendar Dates" style="text;strokeColor=none;align=center;fillColor=none;html=1;verticalAlign=middle;whiteSpace=wrap;rounded=0;" vertex="1" parent="_J-mzapSPnfyJx4NyJFm-1">
          <mxGeometry x="54" y="180" width="100" height="20" as="geometry" />
        </mxCell>
        <mxCell id="qsbTWaNZIfIj6reJVmS2-133" value="Venue Information" style="rounded=0;whiteSpace=wrap;html=1;" vertex="1" parent="_J-mzapSPnfyJx4NyJFm-1">
          <mxGeometry x="8" y="36" width="132" height="144" as="geometry" />
        </mxCell>
        <mxCell id="qsbTWaNZIfIj6reJVmS2-134" value="&lt;font style=&quot;font-size: 10px;&quot;&gt;Highlights&lt;/font&gt;" style="rounded=0;whiteSpace=wrap;html=1;" vertex="1" parent="_J-mzapSPnfyJx4NyJFm-1">
          <mxGeometry x="152.5" y="36" width="51" height="34" as="geometry" />
        </mxCell>
        <mxCell id="qsbTWaNZIfIj6reJVmS2-131" value="&lt;font style=&quot;font-size: 10px;&quot;&gt;Map&amp;nbsp;&lt;/font&gt;" style="rounded=0;whiteSpace=wrap;html=1;" vertex="1" parent="_J-mzapSPnfyJx4NyJFm-1">
          <mxGeometry x="152.5" y="76" width="51" height="44" as="geometry" />
        </mxCell>
        <mxCell id="qsbTWaNZIfIj6reJVmS2-135" value="&lt;span style=&quot;font-size: 10px;&quot;&gt;Feedback Form&lt;/span&gt;" style="rounded=0;whiteSpace=wrap;html=1;" vertex="1" parent="_J-mzapSPnfyJx4NyJFm-1">
          <mxGeometry x="152.5" y="127" width="51" height="53" as="geometry" />
        </mxCell>
        <mxCell id="_J-mzapSPnfyJx4NyJFm-2" value="3rd Party TicketPage" style="swimlane;whiteSpace=wrap;html=1;" parent="qsbTWaNZIfIj6reJVmS2-160" vertex="1">
          <mxGeometry x="620" y="54" width="210" height="180" as="geometry" />
        </mxCell>
        <mxCell id="_J-mzapSPnfyJx4NyJFm-56" value="Sales Modal" style="swimlane;whiteSpace=wrap;html=1;" parent="_J-mzapSPnfyJx4NyJFm-2" vertex="1">
          <mxGeometry x="39.5" y="40" width="131" height="80" as="geometry" />
        </mxCell>
        <mxCell id="_J-mzapSPnfyJx4NyJFm-57" value="&lt;font color=&quot;#0000cc&quot; style=&quot;font-size: 24px;&quot;&gt;GOAL&lt;/font&gt;" style="text;strokeColor=none;align=center;fillColor=none;html=1;verticalAlign=middle;whiteSpace=wrap;rounded=0;" parent="_J-mzapSPnfyJx4NyJFm-56" vertex="1">
          <mxGeometry x="35.5" y="40" width="60" height="30" as="geometry" />
        </mxCell>
        <mxCell id="qsbTWaNZIfIj6reJVmS2-11" value="&lt;font style=&quot;font-size: 36px;&quot;&gt;After&lt;/font&gt;" style="text;strokeColor=none;align=center;fillColor=none;html=1;verticalAlign=middle;whiteSpace=wrap;rounded=0;" vertex="1" parent="qsbTWaNZIfIj6reJVmS2-160">
          <mxGeometry x="76" y="385" width="60" height="30" as="geometry" />
        </mxCell>
        <mxCell id="qsbTWaNZIfIj6reJVmS2-12" value="Home__Page" style="swimlane;whiteSpace=wrap;html=1;" vertex="1" parent="qsbTWaNZIfIj6reJVmS2-160">
          <mxGeometry y="439" width="210" height="286" as="geometry" />
        </mxCell>
        <mxCell id="qsbTWaNZIfIj6reJVmS2-13" value="" style="rounded=1;whiteSpace=wrap;html=1;" vertex="1" parent="qsbTWaNZIfIj6reJVmS2-12">
          <mxGeometry x="10" y="30" width="190" height="70" as="geometry" />
        </mxCell>
        <mxCell id="qsbTWaNZIfIj6reJVmS2-14" value="Hero" style="text;strokeColor=none;align=center;fillColor=none;html=1;verticalAlign=middle;whiteSpace=wrap;rounded=0;" vertex="1" parent="qsbTWaNZIfIj6reJVmS2-12">
          <mxGeometry x="70" y="50" width="60" height="30" as="geometry" />
        </mxCell>
        <mxCell id="qsbTWaNZIfIj6reJVmS2-15" value="" style="rounded=1;whiteSpace=wrap;html=1;" vertex="1" parent="qsbTWaNZIfIj6reJVmS2-12">
          <mxGeometry x="10" y="195" width="90" height="70" as="geometry" />
        </mxCell>
        <mxCell id="qsbTWaNZIfIj6reJVmS2-16" value="" style="rounded=1;whiteSpace=wrap;html=1;" vertex="1" parent="qsbTWaNZIfIj6reJVmS2-12">
          <mxGeometry x="110" y="195" width="90" height="70" as="geometry" />
        </mxCell>
        <mxCell id="qsbTWaNZIfIj6reJVmS2-17" value="Venue Listing" style="text;strokeColor=none;align=center;fillColor=none;html=1;verticalAlign=middle;whiteSpace=wrap;rounded=0;" vertex="1" parent="qsbTWaNZIfIj6reJVmS2-12">
          <mxGeometry x="55" y="172" width="100" height="20" as="geometry" />
        </mxCell>
        <mxCell id="qsbTWaNZIfIj6reJVmS2-18" value="" style="rounded=0;whiteSpace=wrap;html=1;" vertex="1" parent="qsbTWaNZIfIj6reJVmS2-12">
          <mxGeometry y="110" width="210" height="60" as="geometry" />
        </mxCell>
        <mxCell id="qsbTWaNZIfIj6reJVmS2-19" value="" style="rounded=1;whiteSpace=wrap;html=1;" vertex="1" parent="qsbTWaNZIfIj6reJVmS2-12">
          <mxGeometry x="10" y="140" width="40" height="20" as="geometry" />
        </mxCell>
        <mxCell id="qsbTWaNZIfIj6reJVmS2-20" value="" style="rounded=1;whiteSpace=wrap;html=1;" vertex="1" parent="qsbTWaNZIfIj6reJVmS2-12">
          <mxGeometry x="160" y="140" width="40" height="20" as="geometry" />
        </mxCell>
        <mxCell id="qsbTWaNZIfIj6reJVmS2-21" value="" style="rounded=1;whiteSpace=wrap;html=1;" vertex="1" parent="qsbTWaNZIfIj6reJVmS2-12">
          <mxGeometry x="60" y="140" width="40" height="20" as="geometry" />
        </mxCell>
        <mxCell id="qsbTWaNZIfIj6reJVmS2-22" value="" style="rounded=1;whiteSpace=wrap;html=1;" vertex="1" parent="qsbTWaNZIfIj6reJVmS2-12">
          <mxGeometry x="109" y="140" width="40" height="20" as="geometry" />
        </mxCell>
        <mxCell id="qsbTWaNZIfIj6reJVmS2-23" value="&lt;font style=&quot;font-size: 10px;&quot;&gt;Date1&lt;/font&gt;" style="text;strokeColor=none;align=center;fillColor=none;html=1;verticalAlign=middle;whiteSpace=wrap;rounded=0;" vertex="1" parent="qsbTWaNZIfIj6reJVmS2-12">
          <mxGeometry x="10" y="140" width="40" height="20" as="geometry" />
        </mxCell>
        <mxCell id="qsbTWaNZIfIj6reJVmS2-24" value="&lt;font style=&quot;font-size: 10px;&quot;&gt;Date2&lt;/font&gt;" style="text;strokeColor=none;align=center;fillColor=none;html=1;verticalAlign=middle;whiteSpace=wrap;rounded=0;" vertex="1" parent="qsbTWaNZIfIj6reJVmS2-12">
          <mxGeometry x="60" y="140" width="40" height="20" as="geometry" />
        </mxCell>
        <mxCell id="qsbTWaNZIfIj6reJVmS2-25" value="&lt;font style=&quot;font-size: 10px;&quot;&gt;Date3&lt;/font&gt;" style="text;strokeColor=none;align=center;fillColor=none;html=1;verticalAlign=middle;whiteSpace=wrap;rounded=0;" vertex="1" parent="qsbTWaNZIfIj6reJVmS2-12">
          <mxGeometry x="109" y="140" width="40" height="20" as="geometry" />
        </mxCell>
        <mxCell id="qsbTWaNZIfIj6reJVmS2-26" value="&lt;font style=&quot;font-size: 10px;&quot;&gt;Date4&lt;/font&gt;" style="text;strokeColor=none;align=center;fillColor=none;html=1;verticalAlign=middle;whiteSpace=wrap;rounded=0;" vertex="1" parent="qsbTWaNZIfIj6reJVmS2-12">
          <mxGeometry x="160" y="140" width="40" height="20" as="geometry" />
        </mxCell>
        <mxCell id="qsbTWaNZIfIj6reJVmS2-27" value="Tabbed Calendar" style="text;strokeColor=none;align=center;fillColor=none;html=1;verticalAlign=middle;whiteSpace=wrap;rounded=0;" vertex="1" parent="qsbTWaNZIfIj6reJVmS2-12">
          <mxGeometry x="45" y="115" width="120" height="20" as="geometry" />
        </mxCell>
        <mxCell id="qsbTWaNZIfIj6reJVmS2-28" value="&lt;font style=&quot;font-size: 10px;&quot;&gt;Venue1&lt;/font&gt;" style="text;strokeColor=none;align=center;fillColor=none;html=1;verticalAlign=middle;whiteSpace=wrap;rounded=0;" vertex="1" parent="qsbTWaNZIfIj6reJVmS2-12">
          <mxGeometry x="35" y="220" width="40" height="20" as="geometry" />
        </mxCell>
        <mxCell id="qsbTWaNZIfIj6reJVmS2-29" value="&lt;font style=&quot;font-size: 10px;&quot;&gt;Venue2&lt;/font&gt;" style="text;strokeColor=none;align=center;fillColor=none;html=1;verticalAlign=middle;whiteSpace=wrap;rounded=0;" vertex="1" parent="qsbTWaNZIfIj6reJVmS2-12">
          <mxGeometry x="135" y="220" width="40" height="20" as="geometry" />
        </mxCell>
        <mxCell id="qsbTWaNZIfIj6reJVmS2-58" value="3rd Party TicketPage" style="swimlane;whiteSpace=wrap;html=1;fillStyle=solid;" vertex="1" parent="qsbTWaNZIfIj6reJVmS2-160">
          <mxGeometry x="620" y="439" width="210" height="180" as="geometry" />
        </mxCell>
        <mxCell id="qsbTWaNZIfIj6reJVmS2-59" value="Sales Modal" style="swimlane;whiteSpace=wrap;html=1;" vertex="1" parent="qsbTWaNZIfIj6reJVmS2-58">
          <mxGeometry x="39.5" y="40" width="131" height="80" as="geometry" />
        </mxCell>
        <mxCell id="qsbTWaNZIfIj6reJVmS2-60" value="&lt;font color=&quot;#0000cc&quot; style=&quot;font-size: 24px;&quot;&gt;GOAL&lt;/font&gt;" style="text;strokeColor=none;align=center;fillColor=none;html=1;verticalAlign=middle;whiteSpace=wrap;rounded=0;" vertex="1" parent="qsbTWaNZIfIj6reJVmS2-59">
          <mxGeometry x="35.5" y="40" width="60" height="30" as="geometry" />
        </mxCell>
        <mxCell id="qsbTWaNZIfIj6reJVmS2-151" value="" style="endArrow=classic;html=1;rounded=0;exitX=1;exitY=0.5;exitDx=0;exitDy=0;edgeStyle=orthogonalEdgeStyle;entryX=0.01;entryY=0.031;entryDx=0;entryDy=0;entryPerimeter=0;" edge="1" parent="qsbTWaNZIfIj6reJVmS2-160" source="_J-mzapSPnfyJx4NyJFm-4" target="_J-mzapSPnfyJx4NyJFm-1">
          <mxGeometry width="50" height="50" relative="1" as="geometry">
            <mxPoint x="280" y="240" as="sourcePoint" />
            <mxPoint x="310" y="204" as="targetPoint" />
            <Array as="points">
              <mxPoint x="260" y="204" />
              <mxPoint x="260" y="62" />
            </Array>
          </mxGeometry>
        </mxCell>
        <mxCell id="qsbTWaNZIfIj6reJVmS2-152" value="" style="endArrow=classic;html=1;rounded=0;edgeStyle=orthogonalEdgeStyle;entryX=0;entryY=0.031;entryDx=0;entryDy=0;entryPerimeter=0;" edge="1" parent="qsbTWaNZIfIj6reJVmS2-160" source="_J-mzapSPnfyJx4NyJFm-22" target="_J-mzapSPnfyJx4NyJFm-1">
          <mxGeometry width="50" height="50" relative="1" as="geometry">
            <mxPoint x="240" y="240" as="sourcePoint" />
            <mxPoint x="310" y="284" as="targetPoint" />
            <Array as="points">
              <mxPoint x="260" y="284" />
              <mxPoint x="260" y="62" />
            </Array>
          </mxGeometry>
        </mxCell>
        <mxCell id="qsbTWaNZIfIj6reJVmS2-154" style="edgeStyle=orthogonalEdgeStyle;rounded=0;orthogonalLoop=1;jettySize=auto;html=1;exitX=1;exitY=0.5;exitDx=0;exitDy=0;entryX=-0.002;entryY=0.055;entryDx=0;entryDy=0;entryPerimeter=0;" edge="1" parent="qsbTWaNZIfIj6reJVmS2-160" source="_J-mzapSPnfyJx4NyJFm-38" target="_J-mzapSPnfyJx4NyJFm-2">
          <mxGeometry relative="1" as="geometry">
            <mxPoint x="580" y="140" as="targetPoint" />
            <Array as="points">
              <mxPoint x="570" y="263" />
              <mxPoint x="570" y="64" />
            </Array>
          </mxGeometry>
        </mxCell>
        <mxCell id="qsbTWaNZIfIj6reJVmS2-155" value="" style="group" vertex="1" connectable="0" parent="qsbTWaNZIfIj6reJVmS2-160">
          <mxGeometry x="310" y="479" width="210" height="250" as="geometry" />
        </mxCell>
        <mxCell id="qsbTWaNZIfIj6reJVmS2-64" value="Venue__Page" style="swimlane;whiteSpace=wrap;html=1;" vertex="1" parent="qsbTWaNZIfIj6reJVmS2-155">
          <mxGeometry width="210" height="250" as="geometry" />
        </mxCell>
        <mxCell id="qsbTWaNZIfIj6reJVmS2-91" value="Cal Dates" style="text;strokeColor=none;align=center;fillColor=none;html=1;verticalAlign=middle;whiteSpace=wrap;rounded=0;" vertex="1" parent="qsbTWaNZIfIj6reJVmS2-64">
          <mxGeometry x="140" y="29" width="70" height="20" as="geometry" />
        </mxCell>
        <mxCell id="qsbTWaNZIfIj6reJVmS2-65" value="&lt;p style=&quot;line-height: 100%;&quot;&gt;&lt;font style=&quot;font-size: 7px;&quot;&gt;D&lt;/font&gt;&lt;/p&gt;" style="rounded=1;whiteSpace=wrap;html=1;" vertex="1" parent="qsbTWaNZIfIj6reJVmS2-64">
          <mxGeometry x="149" y="49" width="10" height="11" as="geometry" />
        </mxCell>
        <mxCell id="qsbTWaNZIfIj6reJVmS2-139" value="&lt;p style=&quot;line-height: 100%;&quot;&gt;&lt;font style=&quot;font-size: 7px;&quot;&gt;D&lt;/font&gt;&lt;/p&gt;" style="rounded=1;whiteSpace=wrap;html=1;" vertex="1" parent="qsbTWaNZIfIj6reJVmS2-64">
          <mxGeometry x="149" y="64" width="10" height="11" as="geometry" />
        </mxCell>
        <mxCell id="qsbTWaNZIfIj6reJVmS2-140" value="&lt;p style=&quot;line-height: 100%;&quot;&gt;&lt;font style=&quot;font-size: 7px;&quot;&gt;D&lt;/font&gt;&lt;/p&gt;" style="rounded=1;whiteSpace=wrap;html=1;" vertex="1" parent="qsbTWaNZIfIj6reJVmS2-64">
          <mxGeometry x="162" y="64" width="10" height="11" as="geometry" />
        </mxCell>
        <mxCell id="qsbTWaNZIfIj6reJVmS2-141" value="&lt;p style=&quot;line-height: 100%;&quot;&gt;&lt;font style=&quot;font-size: 7px;&quot;&gt;D&lt;/font&gt;&lt;/p&gt;" style="rounded=1;whiteSpace=wrap;html=1;" vertex="1" parent="qsbTWaNZIfIj6reJVmS2-64">
          <mxGeometry x="175" y="64" width="10" height="11" as="geometry" />
        </mxCell>
        <mxCell id="qsbTWaNZIfIj6reJVmS2-142" value="&lt;p style=&quot;line-height: 100%;&quot;&gt;&lt;font style=&quot;font-size: 7px;&quot;&gt;D&lt;/font&gt;&lt;/p&gt;" style="rounded=1;whiteSpace=wrap;html=1;" vertex="1" parent="qsbTWaNZIfIj6reJVmS2-64">
          <mxGeometry x="188" y="64" width="10" height="11" as="geometry" />
        </mxCell>
        <mxCell id="qsbTWaNZIfIj6reJVmS2-147" value="&lt;font style=&quot;font-size: 10px;&quot;&gt;Highlights&lt;/font&gt;" style="rounded=0;whiteSpace=wrap;html=1;" vertex="1" parent="qsbTWaNZIfIj6reJVmS2-64">
          <mxGeometry x="147" y="96" width="51" height="34" as="geometry" />
        </mxCell>
        <mxCell id="qsbTWaNZIfIj6reJVmS2-148" value="&lt;font style=&quot;font-size: 10px;&quot;&gt;Map&amp;nbsp;&lt;/font&gt;" style="rounded=0;whiteSpace=wrap;html=1;" vertex="1" parent="qsbTWaNZIfIj6reJVmS2-64">
          <mxGeometry x="147" y="136" width="51" height="44" as="geometry" />
        </mxCell>
        <mxCell id="qsbTWaNZIfIj6reJVmS2-149" value="&lt;span style=&quot;font-size: 10px;&quot;&gt;Feedback Form&lt;/span&gt;" style="rounded=0;whiteSpace=wrap;html=1;" vertex="1" parent="qsbTWaNZIfIj6reJVmS2-64">
          <mxGeometry x="147" y="187" width="51" height="53" as="geometry" />
        </mxCell>
        <mxCell id="qsbTWaNZIfIj6reJVmS2-150" value="Venue Information" style="rounded=0;whiteSpace=wrap;html=1;" vertex="1" parent="qsbTWaNZIfIj6reJVmS2-64">
          <mxGeometry x="8" y="36" width="132" height="204" as="geometry" />
        </mxCell>
        <mxCell id="qsbTWaNZIfIj6reJVmS2-136" value="&lt;p style=&quot;line-height: 100%;&quot;&gt;&lt;font style=&quot;font-size: 7px;&quot;&gt;D&lt;/font&gt;&lt;/p&gt;" style="rounded=1;whiteSpace=wrap;html=1;" vertex="1" parent="qsbTWaNZIfIj6reJVmS2-155">
          <mxGeometry x="162" y="49" width="10" height="11" as="geometry" />
        </mxCell>
        <mxCell id="qsbTWaNZIfIj6reJVmS2-137" value="&lt;p style=&quot;line-height: 100%;&quot;&gt;&lt;font style=&quot;font-size: 7px;&quot;&gt;D&lt;/font&gt;&lt;/p&gt;" style="rounded=1;whiteSpace=wrap;html=1;" vertex="1" parent="qsbTWaNZIfIj6reJVmS2-155">
          <mxGeometry x="175" y="49" width="10" height="11" as="geometry" />
        </mxCell>
        <mxCell id="qsbTWaNZIfIj6reJVmS2-138" value="&lt;p style=&quot;line-height: 100%;&quot;&gt;&lt;font style=&quot;font-size: 7px;&quot;&gt;D&lt;/font&gt;&lt;/p&gt;" style="rounded=1;whiteSpace=wrap;html=1;" vertex="1" parent="qsbTWaNZIfIj6reJVmS2-155">
          <mxGeometry x="188" y="49" width="10" height="11" as="geometry" />
        </mxCell>
        <mxCell id="qsbTWaNZIfIj6reJVmS2-143" value="&lt;p style=&quot;line-height: 100%;&quot;&gt;&lt;font style=&quot;font-size: 7px;&quot;&gt;D&lt;/font&gt;&lt;/p&gt;" style="rounded=1;whiteSpace=wrap;html=1;" vertex="1" parent="qsbTWaNZIfIj6reJVmS2-155">
          <mxGeometry x="149" y="79" width="10" height="11" as="geometry" />
        </mxCell>
        <mxCell id="qsbTWaNZIfIj6reJVmS2-144" value="&lt;p style=&quot;line-height: 100%;&quot;&gt;&lt;font style=&quot;font-size: 7px;&quot;&gt;D&lt;/font&gt;&lt;/p&gt;" style="rounded=1;whiteSpace=wrap;html=1;" vertex="1" parent="qsbTWaNZIfIj6reJVmS2-155">
          <mxGeometry x="162" y="79" width="10" height="11" as="geometry" />
        </mxCell>
        <mxCell id="qsbTWaNZIfIj6reJVmS2-145" value="&lt;p style=&quot;line-height: 100%;&quot;&gt;&lt;font style=&quot;font-size: 7px;&quot;&gt;D&lt;/font&gt;&lt;/p&gt;" style="rounded=1;whiteSpace=wrap;html=1;" vertex="1" parent="qsbTWaNZIfIj6reJVmS2-155">
          <mxGeometry x="175" y="79" width="10" height="11" as="geometry" />
        </mxCell>
        <mxCell id="qsbTWaNZIfIj6reJVmS2-146" value="&lt;p style=&quot;line-height: 100%;&quot;&gt;&lt;font style=&quot;font-size: 7px;&quot;&gt;D&lt;/font&gt;&lt;/p&gt;" style="rounded=1;whiteSpace=wrap;html=1;" vertex="1" parent="qsbTWaNZIfIj6reJVmS2-155">
          <mxGeometry x="188" y="79" width="10" height="11" as="geometry" />
        </mxCell>
        <mxCell id="qsbTWaNZIfIj6reJVmS2-157" style="edgeStyle=orthogonalEdgeStyle;rounded=0;orthogonalLoop=1;jettySize=auto;html=1;exitX=1;exitY=0.5;exitDx=0;exitDy=0;entryX=0.008;entryY=0.07;entryDx=0;entryDy=0;entryPerimeter=0;" edge="1" parent="qsbTWaNZIfIj6reJVmS2-160" source="qsbTWaNZIfIj6reJVmS2-26" target="qsbTWaNZIfIj6reJVmS2-58">
          <mxGeometry relative="1" as="geometry">
            <Array as="points">
              <mxPoint x="240" y="589" />
              <mxPoint x="240" y="452" />
              <mxPoint x="622" y="452" />
            </Array>
          </mxGeometry>
        </mxCell>
        <mxCell id="qsbTWaNZIfIj6reJVmS2-158" style="edgeStyle=orthogonalEdgeStyle;rounded=0;orthogonalLoop=1;jettySize=auto;html=1;entryX=-0.023;entryY=0.042;entryDx=0;entryDy=0;entryPerimeter=0;" edge="1" parent="qsbTWaNZIfIj6reJVmS2-160" source="qsbTWaNZIfIj6reJVmS2-16" target="qsbTWaNZIfIj6reJVmS2-64">
          <mxGeometry relative="1" as="geometry">
            <Array as="points">
              <mxPoint x="280" y="669" />
              <mxPoint x="280" y="490" />
            </Array>
          </mxGeometry>
        </mxCell>
        <mxCell id="qsbTWaNZIfIj6reJVmS2-159" style="edgeStyle=orthogonalEdgeStyle;rounded=0;orthogonalLoop=1;jettySize=auto;html=1;exitX=1;exitY=0.5;exitDx=0;exitDy=0;entryX=0.006;entryY=0.074;entryDx=0;entryDy=0;entryPerimeter=0;" edge="1" parent="qsbTWaNZIfIj6reJVmS2-160" source="qsbTWaNZIfIj6reJVmS2-138" target="qsbTWaNZIfIj6reJVmS2-58">
          <mxGeometry relative="1" as="geometry" />
        </mxCell>
      </root>
    </mxGraphModel>
  </diagram>
</mxfile>
